<svg xmlns="http://www.w3.org/2000/svg" viewBox="-0.5 -0.5 24 24" id="Computers-Devices-Electronics-Chipset--Streamline-Pixel" height="24" width="24"><desc>Computers Devices Electronics Chipset Streamline Icon: https://streamlinehq.com</desc><title>computers-devices-electronics-chipset</title><g><path d="m19.7153125 4.3843749999999995 -1.0925 0 0 14.2384375 1.0925 0 0 -1.0996875 3.2846875000000004 0 0 -1.0925 -3.2846875000000004 0 0 -2.1921874999999997 3.2846875000000004 0 0 -1.0925 -3.2846875000000004 0 0 -3.2846875000000004 3.2846875000000004 0 0 -1.0996875 -3.2846875000000004 0 0 -2.185 3.2846875000000004 0 0 -1.0996875 -3.2846875000000004 0 0 -1.0925z" fill="#000000" stroke-width="1"></path><path d="m4.3843749999999995 18.6228125 0 1.0925 1.0925 0 0 3.2846875000000004 1.0925 0 0 -3.2846875000000004 2.1921874999999997 0 0 3.2846875000000004 1.0996875 0 0 -3.2846875000000004 3.2846875000000004 0 0 3.2846875000000004 1.0925 0 0 -3.2846875000000004 2.1921874999999997 0 0 3.2846875000000004 1.0925 0 0 -3.2846875000000004 1.0996875 0 0 -1.0925 -14.2384375 0z" fill="#000000" stroke-width="1"></path><path d="M16.430625 5.476875H6.569375000000001v1.0996875H5.476875v9.854062500000001h1.0925v-1.0925h2.1921874999999997v-1.0996875h2.1921874999999997v-1.0925h1.0925v-1.0925h1.0996875v-1.0996875h1.0925v-1.0925h1.0925v-2.1921874999999997h1.0996875v8.7615625h1.0925V6.5765625000000005h-1.0925Zm-6.569375000000001 5.476875h-2.1921874999999997v-1.0925h2.1921874999999997Zm3.2846875000000004 -2.1921874999999997h-5.476875v-1.0925h5.476875Z" fill="#000000" stroke-width="1"></path><path d="M6.569375000000001 16.430625h9.86125v1.0925H6.569375000000001Z" fill="#000000" stroke-width="1"></path><path d="M14.2384375 14.2384375h1.0925v1.0996875h-1.0925Z" fill="#000000" stroke-width="1"></path><path d="M12.04625 14.2384375h1.0996875v1.0996875h-1.0996875Z" fill="#000000" stroke-width="1"></path><path d="m18.6228125 4.3843749999999995 0 -1.0925 -1.0996875 0 0 -3.291875 -1.0925 0 0 3.291875 -2.1921874999999997 0 0 -3.291875 -1.0925 0 0 3.291875 -3.2846875000000004 0 0 -3.291875 -1.0996875 0 0 3.291875 -2.1921874999999997 0 0 -3.291875 -1.0925 0 0 3.291875 -1.0925 0 0 1.0925 14.2384375 0z" fill="#000000" stroke-width="1"></path><path d="m4.3843749999999995 4.3843749999999995 -1.0996875 0 0 1.0925 -3.2846875000000004 0 0 1.0996875 3.2846875000000004 0 0 2.185 -3.2846875000000004 0 0 1.0996875 3.2846875000000004 0 0 3.2846875000000004 -3.2846875000000004 0 0 1.0925 3.2846875000000004 0 0 2.1921874999999997 -3.2846875000000004 0 0 1.0925 3.2846875000000004 0 0 1.0996875 1.0996875 0 0 -14.2384375z" fill="#000000" stroke-width="1"></path></g></svg>
