<svg xmlns="http://www.w3.org/2000/svg" viewBox="-0.5 -0.5 24 24" id="Music-Headphones-Human--Streamline-Pixel" height="48" width="48"><desc>Music Headphones Human Streamline Icon: https://streamlinehq.com</desc><title>music-headphones-human</title><g><path d="M21.35765625 9.31140625h1.0925v4.3771875h-1.0925Z" fill="#000000" stroke-width="1"></path><path d="m7.11921875 9.31140625 1.0925 0 0 -1.0996875 1.0996875 0 0 -1.0925 4.3771875 0 0 1.0925 1.0996875 0 0 -1.0925 3.2846875000000004 0 0 1.0925 1.0925 0 0 8.7615625 1.0996875 0 0 -2.185 1.0925 0 0 -1.0996875 -1.0925 0 0 -4.3771875 1.0925 0 0 -1.0996875 -1.0925 0 0 -4.3771875 -1.0996875 0 0 1.0925 -1.0925 0 0 -1.0925 -2.1921874999999997 0 0 -1.0996875 -7.6690625 0 0 1.0996875 -1.0925 0 0 1.0925 -1.0925 0 0 2.1921874999999997 -1.0996875 0 0 -3.2846875000000004 -1.0925 0 0 3.2846875000000004 -1.0925 0 0 1.0925 4.3771875 0 0 1.0996875z" fill="#000000" stroke-width="1"></path><path d="M18.07296875 16.97328125h1.0925v1.0996875h-1.0925Z" fill="#000000" stroke-width="1"></path><path d="M18.07296875 2.73484375h1.0925v1.0996875h-1.0925Z" fill="#000000" stroke-width="1"></path><path d="M16.97328125 14.788281249999999h1.0996875v1.0925h-1.0996875Z" fill="#000000" stroke-width="1"></path><path d="M16.97328125 11.49640625h1.0996875v2.1921874999999997h-1.0996875Z" fill="#000000" stroke-width="1"></path><path d="M16.97328125 1.6423437500000002h1.0996875v1.0925h-1.0996875Z" fill="#000000" stroke-width="1"></path><path d="M8.211718750000001 18.07296875V20.26875h-2.185v1.0925h-2.1921874999999997v1.0925h17.523125v-1.0925h-2.1921874999999997V20.26875h-2.1921874999999997v-1.0996875h1.0996875v-1.0925Zm7.6690625 3.2846875000000004h-4.3771875V20.26875h-2.1921874999999997v-1.0996875H15.884375Z" fill="#000000" stroke-width="1"></path><path d="M13.68859375 15.880781249999998h3.2846875000000004v1.0925h-3.2846875000000004Z" fill="#000000" stroke-width="1"></path><path d="M12.59609375 14.788281249999999h1.0925v1.0925h-1.0925Z" fill="#000000" stroke-width="1"></path><path d="M11.503593749999999 11.49640625h1.0925v2.1921874999999997h-1.0925Z" fill="#000000" stroke-width="1"></path><path d="M11.503593749999999 8.211718750000001h2.185v1.0996875h-2.185Z" fill="#000000" stroke-width="1"></path><path d="M8.211718750000001 9.31140625h1.0996875v4.3771875h-1.0996875Z" fill="#000000" stroke-width="1"></path><path d="M7.11921875 0.54984375h9.854062500000001v1.0925H7.11921875Z" fill="#000000" stroke-width="1"></path><path d="M7.11921875 16.97328125h1.0925v1.0996875h-1.0925Z" fill="#000000" stroke-width="1"></path><path d="M7.11921875 13.68859375h1.0925v1.0996875h-1.0925Z" fill="#000000" stroke-width="1"></path><path d="m2.74203125 14.788281249999999 0 1.0925 3.2846875000000004 0 0 1.0925 1.0925 0 0 -2.185 -4.3771875 0z" fill="#000000" stroke-width="1"></path><path d="M6.02671875 1.6423437500000002h1.0925v1.0925h-1.0925Z" fill="#000000" stroke-width="1"></path><path d="M4.927031250000001 2.73484375h1.0996875v1.0996875h-1.0996875Z" fill="#000000" stroke-width="1"></path><path d="M3.83453125 9.31140625h1.0925v1.0925h-1.0925Z" fill="#000000" stroke-width="1"></path><path d="M2.74203125 10.40390625h1.0925v2.1921874999999997h-1.0925Z" fill="#000000" stroke-width="1"></path><path d="M1.6423437500000002 13.68859375h1.0996875v1.0996875h-1.0996875Z" fill="#000000" stroke-width="1"></path><path d="M1.6423437500000002 8.211718750000001h1.0996875v1.0996875h-1.0996875Z" fill="#000000" stroke-width="1"></path><path d="M0.54984375 9.31140625h1.0925v4.3771875H0.54984375Z" fill="#000000" stroke-width="1"></path></g></svg>
