<svg xmlns="http://www.w3.org/2000/svg" viewBox="-0.5 -0.5 24 24" id="Pet-Animals-Rabbit-2--Streamline-Pixel" height="24" width="24"><desc>Pet Animals Rabbit 2 Streamline Icon: https://streamlinehq.com</desc><title>pet-animals-rabbit-2</title><g><path d="M19.7153125 14.2384375h1.0925v5.476875h-1.0925Z" fill="#000000" stroke-width="1"></path><path d="M18.6228125 19.7153125h1.0925v1.0996875h-1.0925Z" fill="#000000" stroke-width="1"></path><path d="M18.6228125 12.04625h1.0925v2.1921874999999997h-1.0925Z" fill="#000000" stroke-width="1"></path><path d="M17.523125 2.1921874999999997h1.0996875v9.854062500000001h-1.0996875Z" fill="#000000" stroke-width="1"></path><path d="M16.430625 20.815h2.1921874999999997v1.0925h-2.1921874999999997Z" fill="#000000" stroke-width="1"></path><path d="M16.430625 1.0996875h1.0925v1.0925h-1.0925Z" fill="#000000" stroke-width="1"></path><path d="M14.2384375 0h2.1921874999999997v1.0996875h-2.1921874999999997Z" fill="#000000" stroke-width="1"></path><path d="M6.5765625000000005 21.9075h9.854062500000001V23H6.5765625000000005Z" fill="#000000" stroke-width="1"></path><path d="M14.2384375 13.145937499999999h1.0996875v1.0925h-1.0996875Z" fill="#000000" stroke-width="1"></path><path d="M14.2384375 3.2846875000000004h2.1921874999999997v6.5765625000000005h-2.1921874999999997Z" fill="#000000" stroke-width="1"></path><path d="M13.145937499999999 16.430625h1.0925v1.0925h-1.0925Z" fill="#000000" stroke-width="1"></path><path d="M13.145937499999999 1.0996875h1.0925v1.0925h-1.0925Z" fill="#000000" stroke-width="1"></path><path d="M12.04625 2.1921874999999997h1.0996875v8.7615625h-1.0996875Z" fill="#000000" stroke-width="1"></path><path d="M10.95375 17.523125h2.1921874999999997v1.0996875h-2.1921874999999997Z" fill="#000000" stroke-width="1"></path><path d="m10.95375 16.430625 1.0925 0 0 -1.0925 1.0996875 0 0 -1.0996875 -3.2846875000000004 0 0 1.0996875 1.0925 0 0 1.0925z" fill="#000000" stroke-width="1"></path><path d="M10.95375 10.95375h1.0925v1.0925h-1.0925Z" fill="#000000" stroke-width="1"></path><path d="M9.86125 2.1921874999999997h1.0925v8.7615625h-1.0925Z" fill="#000000" stroke-width="1"></path><path d="M8.7615625 1.0996875h1.0996875v1.0925h-1.0996875Z" fill="#000000" stroke-width="1"></path><path d="M7.6690625 13.145937499999999h1.0925v1.0925h-1.0925Z" fill="#000000" stroke-width="1"></path><path d="M6.5765625000000005 0h2.185v1.0996875H6.5765625000000005Z" fill="#000000" stroke-width="1"></path><path d="M6.5765625000000005 3.2846875000000004h2.185v6.5765625000000005H6.5765625000000005Z" fill="#000000" stroke-width="1"></path><path d="M4.3843749999999995 20.815h2.1921874999999997v1.0925H4.3843749999999995Z" fill="#000000" stroke-width="1"></path><path d="M5.476875 1.0996875h1.0996875v1.0925H5.476875Z" fill="#000000" stroke-width="1"></path><path d="M4.3843749999999995 2.1921874999999997h1.0925v9.854062500000001H4.3843749999999995Z" fill="#000000" stroke-width="1"></path><path d="M3.2846875000000004 19.7153125H4.3843749999999995v1.0996875H3.2846875000000004Z" fill="#000000" stroke-width="1"></path><path d="M3.2846875000000004 12.04625H4.3843749999999995v2.1921874999999997H3.2846875000000004Z" fill="#000000" stroke-width="1"></path><path d="M2.1921874999999997 14.2384375h1.0925v5.476875H2.1921874999999997Z" fill="#000000" stroke-width="1"></path></g></svg>
