<svg xmlns="http://www.w3.org/2000/svg" viewBox="-0.5 -0.5 24 24" id="Computers-Devices-Electronics-Keyboard--Streamline-Pixel" height="24" width="24"><desc>Computers Devices Electronics Keyboard Streamline Icon: https://streamlinehq.com</desc><title>computers-devices-electronics-keyboard</title><g><path d="M21.9075 14.2384375H23v7.6690625h-1.0925Z" fill="#000000" stroke-width="1"></path><path d="M1.0996875 21.9075h20.8078125V23H1.0996875Z" fill="#000000" stroke-width="1"></path><path d="m18.6228125 17.523125 -1.0996875 0 0 1.0996875 2.1921874999999997 0 0 -2.1921874999999997 -1.0925 0 0 1.0925z" fill="#000000" stroke-width="1"></path><path d="M17.523125 19.7153125h2.1921874999999997v1.0996875h-2.1921874999999997Z" fill="#000000" stroke-width="1"></path><path d="M16.430625 15.338125h1.0925v1.0925h-1.0925Z" fill="#000000" stroke-width="1"></path><path d="M16.430625 7.6690625h1.0925v1.0925h-1.0925Z" fill="#000000" stroke-width="1"></path><path d="M15.3309375 17.523125h1.0996875v1.0996875h-1.0996875Z" fill="#000000" stroke-width="1"></path><path d="M15.3309375 8.7615625h1.0996875v1.0996875h-1.0996875Z" fill="#000000" stroke-width="1"></path><path d="M15.3309375 6.5765625000000005h1.0996875v1.0925h-1.0996875Z" fill="#000000" stroke-width="1"></path><path d="M6.569375000000001 19.7153125h9.86125v1.0996875H6.569375000000001Z" fill="#000000" stroke-width="1"></path><path d="M14.2384375 15.338125h1.0925v1.0925h-1.0925Z" fill="#000000" stroke-width="1"></path><path d="M4.3843749999999995 5.476875h10.9465625v1.0996875H4.3843749999999995Z" fill="#000000" stroke-width="1"></path><path d="M13.145937499999999 17.523125h1.0925v1.0996875h-1.0925Z" fill="#000000" stroke-width="1"></path><path d="M13.145937499999999 0h1.0925v2.1921874999999997h-1.0925Z" fill="#000000" stroke-width="1"></path><path d="M12.04625 15.338125h1.0996875v1.0925h-1.0996875Z" fill="#000000" stroke-width="1"></path><path d="M10.95375 17.523125h1.0925v1.0996875h-1.0925Z" fill="#000000" stroke-width="1"></path><path d="M9.86125 15.338125h1.0925v1.0925h-1.0925Z" fill="#000000" stroke-width="1"></path><path d="M8.7615625 9.86125h6.569375000000001v1.0925h-6.569375000000001Z" fill="#000000" stroke-width="1"></path><path d="M8.7615625 17.523125h1.0996875v1.0996875h-1.0996875Z" fill="#000000" stroke-width="1"></path><path d="M7.6690625 15.338125h1.0925v1.0925h-1.0925Z" fill="#000000" stroke-width="1"></path><path d="M6.569375000000001 17.523125h1.0996875v1.0996875H6.569375000000001Z" fill="#000000" stroke-width="1"></path><path d="M5.476875 15.338125h1.0925v1.0925H5.476875Z" fill="#000000" stroke-width="1"></path><path d="M4.3843749999999995 2.1921874999999997h8.7615625v1.0996875H4.3843749999999995Z" fill="#000000" stroke-width="1"></path><path d="M4.3843749999999995 17.523125h1.0925v1.0996875H4.3843749999999995Z" fill="#000000" stroke-width="1"></path><path d="M3.2846875000000004 19.7153125h2.1921874999999997v1.0996875H3.2846875000000004Z" fill="#000000" stroke-width="1"></path><path d="M3.2846875000000004 15.338125H4.3843749999999995v1.0925H3.2846875000000004Z" fill="#000000" stroke-width="1"></path><path d="M3.2846875000000004 3.291875H4.3843749999999995v2.185H3.2846875000000004Z" fill="#000000" stroke-width="1"></path><path d="M2.1921874999999997 17.523125h1.0925v1.0996875H2.1921874999999997Z" fill="#000000" stroke-width="1"></path><path d="m21.9075 14.2384375 0 -1.0925 -13.145937499999999 0 0 -2.1921874999999997 -1.0925 0 0 2.1921874999999997 -6.569375000000001 0 0 1.0925 20.8078125 0z" fill="#000000" stroke-width="1"></path><path d="M0 14.2384375h1.0996875v7.6690625H0Z" fill="#000000" stroke-width="1"></path></g></svg>
