<svg xmlns="http://www.w3.org/2000/svg" viewBox="-0.5 -0.5 24 24" id="Logo-Twitter--Streamline-Pixel" height="24" width="24"><desc>Logo Twitter Streamline Icon: https://streamlinehq.com</desc><title>logo-twitter</title><g><path d="m20.80421875 8.21890625 0 1.0925 1.0996875 0 0 -2.1921874999999997 -3.2846875000000004 0 0 -2.1921874999999997 -1.0996875 0 0 3.291875 3.2846875000000004 0z" fill="#000000" stroke-width="1"></path><path d="M19.71171875 9.31140625h1.0925v1.0925h-1.0925Z" fill="#000000" stroke-width="1"></path><path d="M18.61921875 10.40390625h1.0925v1.0996875h-1.0925Z" fill="#000000" stroke-width="1"></path><path d="M17.51953125 11.503593749999999h1.0996875v4.3771875h-1.0996875Z" fill="#000000" stroke-width="1"></path><path d="M16.42703125 15.880781249999998h1.0925v2.1921874999999997h-1.0925Z" fill="#000000" stroke-width="1"></path><path d="M16.42703125 3.83453125h1.0925v1.0925h-1.0925Z" fill="#000000" stroke-width="1"></path><path d="M15.334531250000001 18.07296875h1.0925v1.0925h-1.0925Z" fill="#000000" stroke-width="1"></path><path d="M15.334531250000001 2.74203125h1.0925v1.0925h-1.0925Z" fill="#000000" stroke-width="1"></path><path d="M14.23484375 19.16546875h1.0996875v1.0996875h-1.0996875Z" fill="#000000" stroke-width="1"></path><path d="M13.14234375 6.02671875h2.1921874999999997v2.1921874999999997h-2.1921874999999997Z" fill="#000000" stroke-width="1"></path><path d="m3.28109375 20.26515625 0 -1.0996875 -1.0925 0 0 2.1921874999999997 12.04625 0 0 -1.0925 -10.95375 0z" fill="#000000" stroke-width="1"></path><path d="M10.95015625 1.6423437500000002h4.3843749999999995v1.0996875h-4.3843749999999995Z" fill="#000000" stroke-width="1"></path><path d="M9.85765625 2.74203125h1.0925v1.0925h-1.0925Z" fill="#000000" stroke-width="1"></path><path d="M8.75796875 3.83453125h1.0996875v1.0925h-1.0996875Z" fill="#000000" stroke-width="1"></path><path d="m8.75796875 8.21890625 0 -3.291875 -1.0925 0 0 2.1921874999999997 -1.0925 0 0 1.0996875 2.185 0z" fill="#000000" stroke-width="1"></path><path d="m6.572968749999999 15.880781249999998 1.0925 0 0 -1.0925 -2.1921874999999997 0 0 2.1921874999999997 1.0996875 0 0 -1.0996875z" fill="#000000" stroke-width="1"></path><path d="M5.47328125 6.02671875h1.0996875v1.0925h-1.0996875Z" fill="#000000" stroke-width="1"></path><path d="M4.38078125 16.98046875h1.0925v1.0925h-1.0925Z" fill="#000000" stroke-width="1"></path><path d="M4.38078125 13.68859375h1.0925v1.0996875h-1.0925Z" fill="#000000" stroke-width="1"></path><path d="M4.38078125 4.927031250000001h1.0925v1.0996875h-1.0925Z" fill="#000000" stroke-width="1"></path><path d="M3.28109375 18.07296875h1.0996875v1.0925h-1.0996875Z" fill="#000000" stroke-width="1"></path><path d="M3.28109375 12.59609375h1.0996875v1.0925h-1.0996875Z" fill="#000000" stroke-width="1"></path><path d="M3.28109375 3.83453125h1.0996875v1.0925h-1.0996875Z" fill="#000000" stroke-width="1"></path><path d="M2.18859375 11.503593749999999h1.0925v1.0925h-1.0925Z" fill="#000000" stroke-width="1"></path><path d="m2.18859375 3.83453125 1.0925 0 0 -1.0925 -2.185 0 0 8.7615625 1.0925 0 0 -7.6690625z" fill="#000000" stroke-width="1"></path></g></svg>
